<svg
      xmlns="http://www.w3.org/2000/svg"
      width="147.628"
      height="188.876"
      version="1.1"
    >
      <g fillOpacity="1" transform="translate(-319.187 -506.83)">
        <path
          fill="#787878"
          stroke="none"
          d="M421.429 629.059a8.571 8.571 0 11-17.143 0 8.571 8.571 0 0117.143 0z"
          transform="translate(-215.799 -332.07) scale(1.58585)"
        ></path>
        <path
          fill="#000"
          stroke="#000"
          strokeLinecap="butt"
          strokeLinejoin="miter"
          strokeOpacity="1"
          strokeWidth="1.269"
          d="M320.898 546.472c2.225 2.207 4.847 3.128 7.947 2.502 5.01-.55 10.112.315 14.204 3.395 5.502 2.412 2.813 7.875 2.46 12.444-.767 7.13 1.588 15.304-3.268 21.42-1.197 5.525 7.227 4.552 5.347 10.562 0 5.174 1.36 10.058 3.303 14.817 3.278 7.817 6.032 15.986 11.106 22.874 2.379 4.306 3.465 9.297 6.703 13.14 5.312-3.1 10.681-6.072 16.652-7.703 2.447 3.111 5.635 5.896 7.644 9.2.996 5.1-.01 10.893 3.578 15.094 3.265 6.338 9.261 10.942 11.267 17.962 1.997 3.728.086 8.454 1.412 11.89.927 2.402 5.736.47 8.476 1.003 4.726-.63 13.608-3.287 14.936-5.532 1.279-2.161-5.85-2.102-10.107-3.924-9.547-1.083-5.759-14.842-12.714-20.092-3.05-5.952-5.863-12.24-5.802-19.05-.94-4.082-4.317-7.351-6.243-11.105-2.37-4.443-5.64-8.196-9.163-11.757 6.203-1.136 13.869-2.899 18.472 2.793 6.842 4.593 12.036 10.843 17.147 17.214 5.283 6.243 12.248 11.299 15.23 19.179 1.018 2.698 5.053 2.358 7.121 1.681 1.635-3.988 4.28.653 7.18-.146 3.022-.318 6.92 1.905 9.015-1.1 6.53-2.818 2.706-9.614-3.91-8.566-5.406-.263-11.985 2.002-14.976-4.096-6.207-9.413-12.878-18.64-20.691-26.766-3.422-3.413-7.809-6.108-9.283-10.967-1.27-3.826-1.87-8.07-6.85-8.604-8.11-3.137-13.684-10.37-20.288-15.805-2.192-1.97-4.855-3.66-4.862-6.936-1.171-3.218-1.4-6.447-.199-9.695-.609-4.029 3.862-3.398 5.394-.833 5.697 5.643 10.984 11.799 16.933 17.126 6.657 4.159 13.68 7.797 19.427 13.222 5.45 1.13 1.431 7.556 5.48 8.593 6.353.426 8.13-8.24 4.178-12.574-3.717-2.472-8.35-3.699-11.739-6.497-7.563-8.295-15.34-16.399-22.697-24.88-1.9-8.58-2.565-18.056-10.648-23.335-3.134-2.255-2.13-4.703.11-7.21 2.593-5.394 2.553-11.769 2.425-17.668-.67-8.12-10.507-13.903-17.012-7.611-1.972 2.332-4.76 4.318-4.149 7.749-.583 3.793-.254 7.583.162 11.374-6.44 4.976-14.91 4.691-22.515 6.522-5.917 1.298-11.903 1.42-17.924.954-3.345.803-7.561 1.398-9.288 4.558.263 1.778-.756 3.995 1.019 5.184h0z"
        ></path>
      </g>
    </svg>